<svg width="179" height="50" viewBox="0 0 179 50" fill="none" xmlns="http://www.w3.org/2000/svg">
<path d="M42.6417 19.8853H30.0515L19.0352 49H31.6253L42.6417 19.8853Z" fill="#EF4369" stroke="#EF4369"/>
<path d="M33.6241 10.4424H21.034L10.0176 39.5571H22.6077L33.6241 10.4424Z" fill="#F26282" stroke="#F26282"/>
<path d="M24.6066 1H12.0164L1 30.1148H13.5902L24.6066 1Z" fill="#E11D48" stroke="#E11D48"/>
<path d="M66.6 45.5C62.5 45.5 59.2833 44.8 56.95 43.4C54.6167 42 53.45 40.0833 53.45 37.65C53.45 36.4833 53.9333 35.5667 54.9 34.9C55.9 34.2333 57.3 33.8833 59.1 33.85C59.3 35.8167 60.05 37.3333 61.35 38.4C62.6833 39.4667 64.4667 40 66.7 40C70.8 40 72.85 38.4833 72.85 35.45C72.85 34.25 72.2833 33.2667 71.15 32.5C70.05 31.7333 68.1167 30.95 65.35 30.15C61.4167 29.05 58.5333 27.65 56.7 25.95C54.8667 24.2167 53.95 22 53.95 19.3C53.95 16.2667 55.1167 13.8833 57.45 12.15C59.8167 10.3833 63.0333 9.5 67.1 9.5C70.3667 9.5 73.1667 10.2833 75.5 11.85C77.8333 13.3833 79.4333 15.5333 80.3 18.3C79.7333 18.8667 78.95 19.3667 77.95 19.8C76.95 20.2333 76.0667 20.45 75.3 20.45C74.7 20.45 74.2333 20.3333 73.9 20.1C73.5667 19.8333 73.2167 19.35 72.85 18.65C72.1833 17.35 71.4167 16.4167 70.55 15.85C69.6833 15.2833 68.5333 15 67.1 15C63.5333 15 61.75 16.1833 61.75 18.55C61.75 19.4833 61.9333 20.25 62.3 20.85C62.6667 21.4167 63.3 21.95 64.2 22.45C65.1 22.9167 66.4667 23.45 68.3 24.05C71.6333 25.15 74.1833 26.1667 75.95 27.1C77.7167 28 78.95 28.9833 79.65 30.05C80.3833 31.1167 80.75 32.4333 80.75 34C80.75 36.2667 80.15 38.2667 78.95 40C77.7833 41.7333 76.1333 43.0833 74 44.05C71.8667 45.0167 69.4 45.5 66.6 45.5ZM109.93 38.35C109.93 39.8833 109.98 41.0833 110.08 41.95C110.213 42.8167 110.413 43.55 110.68 44.15C110.013 44.4833 109.213 44.75 108.28 44.95C107.347 45.15 106.463 45.25 105.63 45.25C104.663 45.25 103.947 45.0167 103.48 44.55C103.013 44.0833 102.713 43.3 102.58 42.2C101.613 43.2667 100.43 44.0833 99.0301 44.65C97.6634 45.2167 96.1634 45.5 94.5301 45.5C91.6301 45.5 89.4134 44.7167 87.8801 43.15C86.3467 41.55 85.5801 39.25 85.5801 36.25V17.5H92.9801V35.9C92.9801 37.6667 93.2467 38.9333 93.7801 39.7C94.3467 40.4333 95.2967 40.8 96.6301 40.8C98.9967 40.8 100.947 39.6 102.48 37.2V17.5H109.93V38.35ZM130.974 17C133.208 17 135.158 17.5833 136.824 18.75C138.491 19.9167 139.774 21.5833 140.674 23.75C141.608 25.9167 142.074 28.4333 142.074 31.3C142.074 34.1667 141.608 36.6667 140.674 38.8C139.774 40.9333 138.474 42.5833 136.774 43.75C135.108 44.9167 133.158 45.5 130.924 45.5C129.524 45.5 128.191 45.1667 126.924 44.5C125.658 43.8333 124.641 42.9333 123.874 41.8C123.641 43.0333 123.291 43.9333 122.824 44.5C122.391 45.0667 121.791 45.35 121.024 45.35C120.091 45.35 119.091 45.2 118.024 44.9C116.991 44.6 116.008 44.1833 115.074 43.65C115.741 42.7833 116.174 41.75 116.374 40.55C116.608 39.3167 116.724 37.35 116.724 34.65V5.45H124.124V19.75C125.124 18.7833 126.158 18.0833 127.224 17.65C128.324 17.2167 129.574 17 130.974 17ZM129.674 40.7C131.341 40.7 132.574 39.95 133.374 38.45C134.174 36.9167 134.574 34.5333 134.574 31.3C134.574 24.9 132.774 21.7 129.174 21.7C128.208 21.7 127.258 21.95 126.324 22.45C125.391 22.9167 124.658 23.5333 124.124 24.3V36.85C125.491 39.4167 127.341 40.7 129.674 40.7ZM147.092 5.45H154.492V45H147.092V5.45ZM174.271 17.15C175.871 17.15 177.037 17.5 177.771 18.2C178.504 18.8667 178.871 19.95 178.871 21.45C178.871 22.0167 178.787 22.5833 178.621 23.15C178.487 23.6833 178.287 24.1 178.021 24.4C177.621 24.1667 177.171 24 176.671 23.9C176.171 23.8 175.454 23.75 174.521 23.75C172.354 23.75 170.737 24.4167 169.671 25.75C168.637 27.0833 168.121 29.1167 168.121 31.85V45H160.721V17.5H168.121V21.15C168.787 19.85 169.654 18.8667 170.721 18.2C171.787 17.5 172.971 17.15 174.271 17.15Z" fill="white"/>
</svg>
